<?xml version="1.0" encoding="iso-8859-1"?>
<!-- Generator: Adobe Illustrator 19.0.0, SVG Export Plug-In . SVG Version: 6.00 Build 0)  -->
<svg version="1.1" id="Capa_1" xmlns="http://www.w3.org/2000/svg" xmlns:xlink="http://www.w3.org/1999/xlink" x="0px" y="0px"
	 viewBox="0 0 511.996 511.996" style="enable-background:new 0 0 511.996 511.996;" xml:space="preserve">
<path style="fill:#FFEB99;" d="M364.196,316.084c61.929-88.46,40.43-210.371-48.03-272.3s-210.371-40.43-272.3,48.03
	s-40.43,210.371,48.03,272.3c67.327,47.137,156.943,47.137,224.27,0C334.834,351.005,351.087,334.752,364.196,316.084z
	 M101.841,101.759c2.72-2.72,5.517-5.305,8.399-7.761C107.358,96.463,104.562,99.047,101.841,101.759z M134.723,77.107
	c56.318-30.663,126.102-20.632,171.497,24.653c-45.403-45.284-115.179-55.315-171.497-24.644V77.107z"/>
<path style="fill:#FFAF46;" d="M342.263,342.181c-8.05,8.05-16.781,15.387-26.098,21.932l139.33,139.33l48.03-48.03l-139.33-139.33
	C357.65,325.401,350.314,334.131,342.263,342.181z"/>
<g>
	<path style="fill:#231F20;" d="M306.22,110.26c-2.253,0.009-4.42-0.893-6.01-2.491c-42.819-42.453-108.378-51.872-161.415-23.19
		c-4.123,2.253-9.283,0.731-11.536-3.392c-2.253-4.123-0.731-9.283,3.392-11.536l0,0C190.318,37.399,264.064,48,312.23,95.749
		c3.315,3.324,3.315,8.705,0,12.02C310.632,109.368,308.472,110.26,306.22,110.26z"/>
	<path style="fill:#231F20;" d="M101.841,110.26c-4.692,0.009-8.509-3.791-8.518-8.484c0-2.261,0.893-4.437,2.499-6.036
		c2.882-2.873,5.84-5.611,8.883-8.212c3.57-3.052,8.934-2.635,11.986,0.935s2.635,8.934-0.935,11.986
		c-2.703,2.312-5.339,4.752-7.906,7.311C106.262,109.368,104.103,110.269,101.841,110.26z"/>
	<path style="fill:#231F20;" d="M509.535,449.378l-134.51-134.484c61.249-94.504,34.293-220.768-60.212-282.017
		S94.046-1.416,32.797,93.088C11.4,126.106,0.009,164.615,0.001,203.957C-0.28,316.432,90.68,407.834,203.155,408.114
		c39.716,0.102,78.599-11.417,111.855-33.136l134.45,134.476c3.315,3.315,8.705,3.315,12.02,0l48.03-48.03
		c3.315-3.315,3.315-8.705,0-12.02L509.535,449.378z M71.816,336.163c-73.04-73.031-73.048-191.448-0.017-264.488
		s191.44-73.04,264.488-0.008c64.19,64.182,73.023,165.181,20.963,239.53c-12.547,17.869-28.104,33.425-45.973,45.973l0,0
		C236.98,409.389,135.879,400.523,71.816,336.163z M455.495,491.423L329.147,365.074c1.369-1.063,2.661-2.219,4.004-3.315
		c1.148-0.944,2.295-1.879,3.4-2.848c4.029-3.451,7.974-6.996,11.697-10.72s7.268-7.651,10.72-11.697
		c0.969-1.131,1.904-2.278,2.848-3.4c1.097-1.343,2.253-2.635,3.315-4.004l126.374,126.323L455.495,491.423z"/>
</g>
<g>
</g>
<g>
</g>
<g>
</g>
<g>
</g>
<g>
</g>
<g>
</g>
<g>
</g>
<g>
</g>
<g>
</g>
<g>
</g>
<g>
</g>
<g>
</g>
<g>
</g>
<g>
</g>
<g>
</g>
</svg>
